PathFileType	4	(X/Y/Z)	T1_P2_Vision_NoMovement_0_0-733.trc
DataRate	CameraRate	NumFrames	NumMarkers	Units	OrigDataRate	OrigDataStartFrame	OrigNumFrames
60	60	4	27	m	60	183	733
Frame#	Time	RHip			RKnee			RAnkle			RBigToe			RSmallToe			RHeel			LHip			LKnee			LAnkle			LBigToe			LSmallToe			LHeel			Neck			Head			Nose			RShoulder			RElbow			RWrist			RThumb			RIndex			RPinky			LShoulder			LElbow			LWrist			LThumb			LIndex			LPinky		
		X1	Y1	Z1	X2	Y2	Z2	X3	Y3	Z3	X4	Y4	Z4	X5	Y5	Z5	X6	Y6	Z6	X7	Y7	Z7	X8	Y8	Z8	X9	Y9	Z9	X10	Y10	Z10	X11	Y11	Z11	X12	Y12	Z12	X13	Y13	Z13	X14	Y14	Z14	X15	Y15	Z15	X16	Y16	Z16	X17	Y17	Z17	X18	Y18	Z18	X19	Y19	Z19	X20	Y20	Z20	X21	Y21	Z21	X22	Y22	Z22	X23	Y23	Z23	X24	Y24	Z24	X25	Y25	Z25	X26	Y26	Z26	X27	Y27	Z27
184	3.066666666666667	454.19306990912116	3713.158484691011	637.5405909206671	848.8126653440303	3772.4540291040908	651.1060780466692	1214.3093678518887	3730.4891238129876	658.2691969179774	1303.8612588221754	3663.6281321193233	665.702782188064	1295.406889283333	3709.6232315727234	610.8220648679119	1278.8813284902928	3802.596839826314	733.2078846075767	464.8456998578374	3624.3878807084475	847.1133501064618	845.1546944276292	3640.3946388500344	853.3843573234187	1226.4322886588266	3677.9618750606774	856.3597929175669	1304.735448901623	3545.454649088891	797.3769279409914	1283.4025805295112	3537.2402212578118	846.628323617673	1256.1850924232872	3705.3899877423682	857.0654189205127	-126.02115423030222	3615.6709369616224	741.5988921007165	-395.56950147146256	3583.018051517651	716.4241082467183	-247.12754118550657	3508.46741658779	691.7951903708969	-48.09221193469525	3659.349189445689	576.3227535633443	200.326339445683	3700.09104623639	528.2401676489098	352.8892445806959	3541.5819398952644	617.5903590367491	419.8414603792099	3500.1789682190997	683.8722806778231	452.830831364413	3502.6737014717132	699.3433963796394	471.56073789482144	3446.500060789697	634.606532626921	-35.11139270340683	3549.198822324655	884.4565261918526	231.33978927853562	3493.5131807411954	903.0573859655367	364.8473083954143	3477.235497582451	718.1291370071881	410.72806703342565	3484.305145122408	617.7223681634863	454.662631070783	3498.9901609234985	618.9693961816495	466.7553572646997	3441.2113280994918	645.4434585212532
185	3.083333333333333	453.77388562469804	3713.6799537360807	637.842283399808	849.5995432005583	3772.501855095401	651.2969927710526	1213.9636057976677	3729.498142152236	657.480591043701	1303.064926123479	3662.918184934187	665.0628903760511	1295.6403034316158	3711.411576996914	611.1129552854235	1276.6554393888473	3800.2289346868256	733.8759036785926	462.9763013860302	3623.5671238636137	846.8889488514528	845.1965639313934	3640.414260550286	853.3729659626327	1225.7032147313478	3679.346922363283	858.1547015669146	1306.4909703504568	3548.2183696151997	799.0888268790598	1283.3562073132496	3537.226146210102	846.308481388654	1255.8691288267341	3705.1494409987863	856.9886807538867	-126.14725468825671	3613.8290514026994	738.1862757490984	-395.6545935967413	3583.2963863435616	716.5857460853919	-248.70758301487783	3511.0649936397585	694.0888484937286	-48.10027150082545	3659.1527881042707	576.1918196063218	201.31536162390674	3700.415127240486	528.3810715627288	353.06313732520994	3541.661082024214	617.5886899008016	420.87535250970785	3501.352781155942	683.2775050038368	451.97050575225	3503.724733239986	699.9675818372983	471.60781684780335	3446.586097194562	634.6412668029684	-35.10919375304579	3549.524962959251	884.5501513782893	231.6413108487884	3495.633872933907	905.1137307027307	364.6012449266121	3475.437561739048	716.2734538859088	410.8980359077358	3484.1004014440964	617.7193550236232	454.65059595498445	3498.568804283419	618.8640357632761	467.9653565661774	3444.772838498165	646.8220205985035
186	3.1	453.6674543663704	3713.783931892309	637.9357020626976	850.1336759696645	3772.704344949717	651.3847068872219	1212.8730745975338	3726.9808661810603	655.4393979558376	1300.781432794239	3660.1371656036945	662.7874872752274	1296.0750936033198	3709.8861340672893	610.3103141463127	1273.6571311828236	3791.675129553397	731.6948456811424	462.10807300635264	3623.3168441376747	846.8697405841399	845.0389043543422	3640.3957119810993	853.3278639691375	1227.2838399169768	3683.77936139593	862.0668617010988	1307.7358202135015	3548.852358228951	800.564178623916	1283.5694596134697	3537.098743774663	846.9445140118279	1256.5405763840713	3705.587772581531	857.1300516744822	-126.23468292078911	3617.24515635937	739.2018387218695	-395.90685055282967	3583.7363776311477	716.8416411743164	-249.73134284643794	3510.549464583675	693.6552741218699	-48.09919534593639	3659.450434413595	576.4566718063013	202.02979880790517	3700.7832965559337	528.5594203313436	353.5769780272033	3541.975335637126	617.6653023148225	422.0923158048464	3502.8940893576764	683.0211988156944	450.8711509523156	3505.148161436644	700.8146936719456	471.6793071107313	3446.61903609232	634.5729450805482	-35.10900993928067	3549.5920005985636	884.5275295909469	231.30696393344152	3493.6028926213316	903.1505894410083	364.4820347746981	3474.3062695819954	715.3157479559646	412.0478084730412	3486.8539000230885	618.5766987437247	454.9757280808898	3500.586568975095	619.4626185964588	468.53765037774497	3446.397811802802	647.2951778081782
187	3.1166666666666667	453.6882041364625	3713.686110610288	637.912284987203	849.7664824667236	3772.5416825515395	651.2295749264267	1211.5572031988938	3725.044999833209	653.7817035829063	1297.2310138953933	3655.271874813485	658.8410750635582	1295.8189391799099	3705.5745319828247	608.8029447059243	1273.5635365526377	3787.6702135523274	731.2016756914213	461.6376949185869	3623.791142609208	847.1688872813222	844.5550563925965	3640.0720502265144	853.1050386751822	1229.8355685050988	3687.53579400749	864.8120262184312	1307.3223287565904	3546.9403106340233	800.8550703097116	1283.8087524183002	3537.011040090829	847.9773795192976	1257.5554550382321	3706.2164695626216	857.3169876180991	-126.2843097806697	3623.206404104264	743.6069464949977	-396.6378318210609	3584.3584971224254	717.2090330591972	-250.02166604163557	3508.2663327975547	691.0073028351645	-48.1044902009228	3659.6146050467287	576.6105984501314	202.040197310198	3701.3311205829746	528.8364450486174	354.45885572742674	3542.5654599162544	617.8454967606798	423.0348942165937	3504.243721682489	683.0749257844489	450.04505770342774	3506.291242754187	701.4656891124672	471.7501596914061	3446.639283331962	634.4901245519803	-35.110981675602346	3549.5685290470724	884.4263565429774	230.5491192927022	3488.807595061091	898.5109985974128	364.49448551078495	3473.468716620014	715.7940238743078	413.0093318196514	3490.9617304728117	619.7787878324912	455.5607035698884	3504.709416211718	620.6853378416586	468.0093881218711	3445.3319226521853	646.5263409107155
